<?xml version="1.0" standalone="no"?><!DOCTYPE svg PUBLIC "-//W3C//DTD SVG 1.1//EN" "http://www.w3.org/Graphics/SVG/1.1/DTD/svg11.dtd"><svg t="1539337883945" class="icon" style="" viewBox="0 0 1024 1024" version="1.1" xmlns="http://www.w3.org/2000/svg" p-id="8249" xmlns:xlink="http://www.w3.org/1999/xlink" width="1024" height="1024"><defs><style type="text/css"></style></defs><path d="M845.914 779.13h-91.74c-18.434 0-33.392-14.946-33.392-33.392 0-18.446 14.958-33.392 33.392-33.392h91.74c61.368 0 111.304-49.936 111.304-111.304s-49.936-111.304-111.304-111.304H768c-18.434 0-33.392-14.946-33.392-33.392s14.958-33.392 33.392-33.392h77.914c98.194 0 178.086 79.892 178.086 178.086s-79.892 178.09-178.086 178.09z" fill="#5A6680" p-id="8250"></path><path d="M400.696 1024C179.76 1024 0 844.25 0 623.304v-233.74c0-18.446 14.958-33.392 33.392-33.392H768c18.434 0 33.392 14.946 33.392 33.392v233.74C801.392 844.25 621.63 1024 400.696 1024z" fill="#32BBFF" p-id="8251"></path><path d="M768 356.174H400.696V1024c220.934 0 400.696-179.75 400.696-400.696v-233.74c0-18.444-14.958-33.39-33.392-33.39z" fill="#03A9F4" p-id="8252"></path><path d="M768 1024H33.392C14.958 1024 0 1009.054 0 990.608s14.958-33.392 33.392-33.392H768c18.434 0 33.392 14.946 33.392 33.392S786.434 1024 768 1024z" fill="#B8C8D9" p-id="8253"></path><path d="M222.63 191.826c58.006-52.038 59.742-129.708 0-183.304-13.674-12.284-34.608-11.086-46.934 2.512-12.326 13.588-11.282 34.662 2.218 47.086 29.356 27 29.274 57.19 0.152 83.968-58.006 52.038-59.742 129.708 0 183.304 13.646 12.244 34.564 11.122 46.934-2.512 12.326-13.588 11.282-34.662-2.218-47.086-29.356-27.002-29.272-57.19-0.152-83.968zM423.18 275.812c13.356 12.466 14.468 33.392 2.226 46.97-6.676 7.346-15.584 11.13-24.71 11.13-8.014 0-15.806-2.672-22.26-8.46-4.674-4.23-44.522-41.406-44.522-91.714s39.846-87.486 44.522-91.714c29.164-26.714 29.164-56.988-0.222-83.924-13.356-12.466-14.468-33.392-2.226-46.97C382.662 3.784 391.57 0 400.696 0c8.014 0 15.806 2.672 22.26 8.46 59.656 53.648 58.1 131.34 0 183.43-0.446 0.446-0.668 0.89-1.114 1.336-5.342 5.12-17.14 19.144-20.478 33.614 0 0-0.668 4.674-0.668 6.9 0 3.34 2.006 11.798 2.448 12.688 4.9 13.356 15.586 25.378 20.036 29.384z" fill="#E6F3FF" p-id="8254"></path><path d="M623.326 191.826c58.006-52.038 59.742-129.708 0-183.304-13.674-12.284-34.608-11.086-46.934 2.512-12.326 13.588-11.282 34.662 2.218 47.086 29.356 27 29.274 57.19 0.152 83.968-58.006 52.038-59.742 129.708 0 183.304 13.646 12.244 34.564 11.122 46.934-2.512 12.326-13.588 11.282-34.662-2.218-47.086-29.356-27.002-29.274-57.19-0.152-83.968zM425.406 322.782c-6.676 7.346-15.584 11.13-24.71 11.13V233.74c0 3.34 2.006 11.798 2.448 12.688 4.9 13.356 15.584 25.378 20.034 29.384 13.358 12.466 14.468 33.392 2.228 46.97zM422.956 191.888c-0.446 0.446-0.668 0.89-1.114 1.336-5.342 5.12-17.14 19.144-20.478 33.614 0 0-0.668 4.674-0.668 6.9V0c8.014 0 15.806 2.672 22.26 8.46 59.658 53.648 58.102 131.338 0 183.428z" fill="#CFDBE6" p-id="8255"></path><path d="M768 957.218H400.696V1024H768c18.434 0 33.392-14.946 33.392-33.392s-14.958-33.39-33.392-33.39z" fill="#A3B8CC" p-id="8256"></path></svg>