<svg t="1688003090598" class="icon" viewBox="0 0 1024 1024" version="1.1" xmlns="http://www.w3.org/2000/svg" p-id="1578" width="128" height="128"><path d="M831.143 65C901.756 65 959 122.244 959 192.857v638.286C959 901.756 901.756 959 831.143 959H192.857C122.244 959 65 901.756 65 831.143V192.857C65 122.244 122.244 65 192.857 65h638.286zM352.679 768.214H165v26.857c0 34.954 28.052 63.356 62.871 63.92l1.058 0.009h214.535l-90.785-90.786z m287.678-95.893L453.678 859h341.393c34.954 0 63.356-28.052 63.92-62.871l0.009-1.058v-26.857H736.25l-95.893-95.893zM795.071 165H228.93c-34.954 0-63.356 28.052-63.92 62.871L165 228.93v440.356h219.643l63.928 63.93 191.786-191.786 127.857 127.857 90.786-0.001V228.929C859 193.622 830.378 165 795.071 165z m-250.25 283.571c17.654 0 31.965 14.311 31.965 31.965v36.071c0 17.654-14.311 31.964-31.965 31.964H288.75c-17.653 0-31.964-14.31-31.964-31.964v-36.071c0-17.654 14.31-31.965 31.964-31.965h256.071z m190-191.785c17.654 0 31.965 14.31 31.965 31.964v36.071c0 17.654-14.311 31.965-31.965 31.965H288.75c-17.653 0-31.964-14.311-31.964-31.965V288.75c0-17.653 14.31-31.964 31.964-31.964h446.071z" fill="#494C5B" p-id="1579"></path></svg>