<svg t="1688003456258" class="icon" viewBox="0 0 1024 1024" version="1.1" xmlns="http://www.w3.org/2000/svg" p-id="3607" width="128" height="128"><path d="M780.8 394.922667v136.490666h90.581333c8.533333 0 11.648 0.853333 14.805334 2.56 3.114667 1.664 5.546667 4.096 7.253333 7.253334 1.706667 3.114667 2.56 6.229333 2.56 14.762666v28.373334c0 8.533333-0.853333 11.648-2.56 14.805333a17.450667 17.450667 0 0 1-7.253333 7.253333c-3.157333 1.664-6.229333 2.56-14.805334 2.56H780.8v58.154667c0 22.741333-2.773333 44.8-7.978667 65.92 13.909333 3.285333 24.874667 7.68 35.84 13.013333a148.821333 148.821333 0 0 1 64.554667 58.624c12.970667 22.058667 20.650667 43.989333 22.4 95.146667h-76.8c-1.024-32.554667-4.778667-45.44-12.672-58.538667a68.224 68.224 0 0 0-30.378667-26.837333 99.712 99.712 0 0 0-32.384-9.045333C696.576 885.205333 610.474667 938.666667 512 938.666667s-184.576-53.461333-231.381333-133.248c-14.208 1.834667-23.253333 4.693333-32.426667 9.045333a68.224 68.224 0 0 0-30.293333 26.837333c-7.936 13.098667-11.690667 25.984-12.757334 58.581334H128.426667c1.706667-51.2 9.429333-73.130667 22.4-95.146667a148.821333 148.821333 0 0 1 64.512-58.666667c11.008-5.376 21.973333-9.728 35.84-13.013333a274.730667 274.730667 0 0 1-7.936-65.92v-58.154667H152.618667c-8.533333 0-11.648-0.896-14.805334-2.56a17.450667 17.450667 0 0 1-7.253333-7.253333c-1.706667-3.157333-2.56-6.272-2.56-14.805333v-28.373334c0-8.533333 0.853333-11.648 2.56-14.762666a17.450667 17.450667 0 0 1 7.253333-7.253334c3.157333-1.706667 6.229333-2.56 14.805334-2.56H243.2V394.922667c-23.722667-1.664-40.234667-6.272-55.168-13.525334a102.314667 102.314667 0 0 1-44.373333-40.32c-9.344-15.914667-14.677333-33.749333-15.530667-61.824h85.333333c0.469333 13.44 2.304 19.84 5.461334 25.216 2.261333 3.84 5.12 6.442667 9.344 8.533334 6.997333 3.413333 15.616 5.077333 36.650666 5.077333H759.04c21.034667 0 29.653333-1.706667 36.650667-5.12a20.48 20.48 0 0 0 9.386666-8.490667c3.114667-5.376 4.949333-11.776 5.418667-25.173333h85.333333c-0.853333 28.032-6.186667 45.866667-15.530666 61.781333-10.24 17.365333-25.258667 31.018667-44.373334 40.32-14.933333 7.253333-31.445333 11.861333-55.168 13.525334z m-76.8 0.725333h-384V667.136c0 93.866667 65.962667 172.117333 153.6 190.08v-364.8a19.2 19.2 0 0 1 19.2-19.2h38.4a19.2 19.2 0 0 1 19.2 19.2v364.8c87.637333-17.962667 153.6-96.256 153.6-190.08V395.648z m-384-116.394667v-9.685333C320 167.808 401.664 85.333333 502.4 85.333333h19.2C622.336 85.333333 704 167.808 704 269.568v9.685333h-76.8v-9.685333c0-58.88-47.274667-106.666667-105.6-106.666667h-19.2c-58.325333 0-105.6 47.786667-105.6 106.666667v9.685333H320z" fill="#494C5B" p-id="3608"></path></svg>