<?xml version="1.0" standalone="no"?><!DOCTYPE svg PUBLIC "-//W3C//DTD SVG 1.1//EN" "http://www.w3.org/Graphics/SVG/1.1/DTD/svg11.dtd"><svg t="1579078653049" class="icon" viewBox="0 0 1024 1024" version="1.1" xmlns="http://www.w3.org/2000/svg" p-id="1980" xmlns:xlink="http://www.w3.org/1999/xlink" width="300" height="300"><defs><style type="text/css"></style></defs><path d="M762.1 956.3l-660-230v-552l660 192z" fill="#37BBEF" p-id="1981"></path><path d="M762.1 956.3l160-170v-550l-160 130z" fill="#2481BA" p-id="1982"></path><path d="M102.1 174.3l660 192 160-130L297.7 79.7z" fill="#3ED6FF" p-id="1983"></path><path d="M922.1 410.9v-25.7l-160 129.7v2.7l-244.3-74.8V309.1h-20v127.6l-262-80.2V222.2h-20v128.1l-113.7-34.8v20.9L335.8 408v112l-233.7-74.9v21l113.7 36.4v121.9L102.1 588v21l233.7 74.9v123.9l20 7V690.3l280 89.7v132.3l20 7V786.4l106.3 34.1v2.3l160-153.8v-28.6l-160 153.8v5.3l-244.3-78.3V599.3l244.3 78.3v1.4l160-141.8v-27.1l-160 141.8v4.8l-106.3-34.1V505.9l106.3 32.5v2.1l160-129.6zM497.8 714.8l-262-84V509l262 84v121.8z m138-98.6l-280-89.7V414.1l280 85.7v116.4z" fill="#FFFFFF" p-id="1984"></path><path d="M70.1 169.3l695.6 195.6 189.6-129.2-657.6-168z" fill="#3ED6FF" p-id="1985"></path><path d="M68.7 190.7v-21.4l697 195.6v24.8z" fill="#369BCE" p-id="1986"></path><path d="M955.3 235.7v23.8L765.7 389.7v-24.8z" fill="#1A6D96" p-id="1987"></path></svg>
