<svg t="1688003541843" class="icon" viewBox="0 0 1024 1024" version="1.1" xmlns="http://www.w3.org/2000/svg" p-id="1884" width="128" height="128"><path d="M512 0zM512 0z m0 0zM773.8 909.1H263.4c-60.4 0-109.6-49.2-109.6-109.6v-56.7c0-14.1 11.5-25.6 25.6-25.6s25.6 11.5 25.6 25.6v56.7c0 32.2 26.2 58.3 58.4 58.3h510.4c32.2 0 58.4-26.1 58.4-58.3V585.2c0-14.1 11.5-25.6 25.6-25.6s25.6 11.5 25.6 25.6v214.4c0 60.3-49.2 109.5-109.6 109.5zM857.8 446.6c-14.1 0-25.6-11.5-25.6-25.6V224.5c0-32.2-26.2-58.4-58.4-58.4H263.4c-32.2 0-58.4 26.2-58.4 58.4v57.8c0 14.1-11.5 25.6-25.6 25.6s-25.6-11.5-25.6-25.6v-57.8c0-60.4 49.2-109.6 109.6-109.6h510.4c60.4 0 109.6 49.2 109.6 109.6V421c0 14.1-11.5 25.6-25.6 25.6zM179.4 616.9c-14.1 0-25.6-11.5-25.6-25.6V429.9c0-14.1 11.5-25.6 25.6-25.6s25.6 11.5 25.6 25.6v161.4c0 14.1-11.5 25.6-25.6 25.6zM225.2 384.6H96c-14.1 0-25.6-11.5-25.6-25.6s11.5-25.6 25.6-25.6h129.2c14.1 0 25.6 11.5 25.6 25.6s-11.5 25.6-25.6 25.6zM225.2 686.8H96c-14.1 0-25.6-11.5-25.6-25.6s11.5-25.6 25.6-25.6h129.2c14.1 0 25.6 11.5 25.6 25.6s-11.5 25.6-25.6 25.6z" p-id="1885" fill="#494C5B"></path><path d="M667.8 378.2H377.1c-14.1 0-25.6-11.5-25.6-25.6S363 327 377.1 327h290.8c14.1 0 25.6 11.5 25.6 25.6s-11.6 25.6-25.7 25.6zM667.8 680.3H377.1c-14.1 0-25.6-11.5-25.6-25.6s11.5-25.6 25.6-25.6h290.8c14.1 0 25.6 11.5 25.6 25.6s-11.6 25.6-25.7 25.6zM667.8 529.2H377.1c-14.1 0-25.6-11.5-25.6-25.6S363 478 377.1 478h290.8c14.1 0 25.6 11.5 25.6 25.6s-11.6 25.6-25.7 25.6zM857 607.2c-3.8 0-7.7-0.2-11.6-0.7-25.6-3.1-48.5-16-64.5-36.3s-23-45.6-19.9-71.2c6.4-52.9 54.1-90.7 107.5-84.4 25.6 3.1 48.5 16 64.5 36.3s23 45.6 19.9 71.2c-5.9 49-47.8 85.1-95.9 85.1z m-0.1-142.1c-22.7 0-42.3 17-45.2 40.1-1.4 12.1 1.9 23.9 9.4 33.5s18.2 15.6 30.3 17.1C876 559.3 899 541 902 516.1c1.4-12.1-1.9-23.9-9.4-33.5s-18.2-15.6-30.3-17.1c-1.7-0.3-3.6-0.4-5.4-0.4z" p-id="1886" fill="#494C5B"></path></svg>