<?xml version="1.0" standalone="no"?><!DOCTYPE svg PUBLIC "-//W3C//DTD SVG 1.1//EN" "http://www.w3.org/Graphics/SVG/1.1/DTD/svg11.dtd"><svg t="1579078749100" class="icon" viewBox="0 0 1024 1024" version="1.1" xmlns="http://www.w3.org/2000/svg" p-id="1049" xmlns:xlink="http://www.w3.org/1999/xlink" width="300" height="300"><defs><style type="text/css"></style></defs><path d="M537 820.3l-470-230v-222l470 212z" fill="#37BBEF" p-id="1050"></path><path d="M537 820.3l420-230v-220l-420 210z" fill="#2481BA" p-id="1051"></path><path d="M67 368.3l470 212 420-210-494.4-166.6z" fill="#3ED6FF" p-id="1052"></path><path d="M532 266.7l-117.1-7.1 28.7 48 29.5-13.6 102.7 39.2 29.6-14.4-102.9-38.4zM406.8 324.6L290.2 315l28.3 50.4 29.4-13.6L450 394.5l29.6-14.4-102.2-41.9zM605.8 438.1l117.4 5.8-28-52.2-29.8 15.5-102.5-40.5-29.6 14.7 102.3 41.2zM538.8 472.9L437 429l-29.7 14.7 101.8 44.6-29.8 15.5 116.9 8.2-27.6-54.6z" fill="#FFFFFF" p-id="1053"></path></svg>
