<svg width="580" height="400" xmlns="http://www.w3.org/2000/svg">
 <!-- Created with Method Draw - http://github.com/duopixel/Method-Draw/ -->

 <g>
  <title>background</title>
  <rect fill="#fff" id="canvas_background" height="402" width="582" y="-1" x="-1"/>
  <g display="none" overflow="visible" y="0" x="0" height="100%" width="100%" id="canvasGrid">
   <rect fill="url(#gridpattern)" stroke-width="0" y="0" x="0" height="100%" width="100%"/>
  </g>
 </g>
 <g>
  <title>Layer 1</title>
  <!-- Created with Method Draw - http://github.com/duopixel/Method-Draw/ -->
  <g id="svg_19">
   <g transform="matrix(0.05284713925482465,0,0,0.05284713925482465,0,0) " id="svg_16">
    <title transform="translate(0,-283.8377990722656) translate(0,0.000288734445348382) translate(0,-7.147621154785156) translate(-1589.4893798828125,0) translate(-0.000577468890696764,0) translate(0.000577468890696764,0) translate(7.162346363067627,0) translate(5197.52490234375,0) translate(0,3584.5) ">background</title>
    <rect x="3614.197869" y="3292.514869" width="582" height="402" id="svg_14" fill="#fff"/>
    <g id="svg_13" display="none">
     <rect id="svg_17" width="580" height="400" x="3615.197869" y="3293.514869" stroke-width="0" fill="url(#gridpattern)"/>
    </g>
   </g>
   <g transform="matrix(0.05284713925482465,0,0,0.05284713925482465,0,0) " id="svg_18">
    <title transform="translate(0,-283.8377990722656) translate(0,0.000288734445348382) translate(0,-7.147621154785156) translate(-1589.4893798828125,0) translate(-0.000577468890696764,0) translate(0.000577468890696764,0) translate(7.162346363067627,0) translate(5197.52490234375,0) translate(0,3584.5) ">Layer 1</title>
    <path d="m3874.446789,3491.138879c-3.04922,-3.09845 -7.29914,-5.05122 -12.02374,-5.05122c-4.08424,-0.00052 -7.60027,1.40298 -10.67005,3.89413c-1.33845,1.08591 -2.74223,2.38608 -4.50812,4.09547c-0.87721,0.84888 -26.30764,25.43945 -26.30764,25.43945c1.33312,0.18917 3.16662,0.24564 4.80136,0.25602c1.53159,0.00937 30.7502,0.00658 31.97329,0.00658c2.46167,0 4.06389,-0.00276 5.7848,-0.12813c3.94678,-0.28692 7.67524,-1.7294 10.68912,-4.67869c6.69278,-6.54993 6.79341,-17.18038 0.26098,-23.83361m-4.88803,19.12048c-1.29703,1.27912 -3.61056,2.732 -7.4084,2.8604c-1.75622,0.05976 -3.80699,0.06608 -4.74546,0.06608l-20.40642,0c7.42465,-7.18632 13.90119,-13.45514 14.63585,-14.16575c0.67316,-0.65185 2.18697,-2.0951 3.49263,-3.26659c2.86624,-2.57222 5.44709,-3.08984 7.27168,-3.07287c2.85963,0.02684 5.4603,1.19076 7.3192,3.06932c3.97649,4.05039 3.88247,10.52359 -0.15908,14.50941" fill="#00A3FF" id="svg_12"/>
    <path d="m3833.416999,3489.557709c-2.98921,-2.22955 -6.336,-3.47553 -10.13002,-3.47022c-4.72463,0 -8.97479,1.95279 -12.02401,5.05148c-6.53217,6.65325 -6.43154,17.28344 0.26125,23.8331c2.68708,2.62995 5.94236,4.0608 9.41392,4.54374l6.54769,-6.33163c-1.05868,-0.00431 -2.57806,-0.01875 -3.92643,-0.06433c-3.7976,-0.12864 -6.1111,-1.581 -7.40839,-2.8604c-4.04155,-3.98582 -4.13558,-10.45926 -0.15884,-14.50989c1.8589,-1.87833 4.45959,-3.04198 7.31896,-3.06858c1.7918,-0.00735 4.22373,0.51106 6.97156,2.78112c1.31176,1.08364 4.22424,3.63508 5.50196,4.7833c0.06505,0.05849 0.14334,0.06356 0.21957,0.00152l4.50835,-4.38392c0.07803,-0.07521 0.07346,-0.17727 -0.00355,-0.24641c-2.16815,-1.95327 -5.24201,-4.68604 -7.09202,-6.05888" fill="#00C8DC" id="svg_11"/>
    <path d="m3864.195689,3482.282359c-3.11096,-8.75693 -11.48807,-15.03234 -21.34084,-15.03234c-11.30203,0 -20.66794,8.28236 -22.3642,19.07084c0.90899,-0.15245 1.84263,-0.23348 2.79635,-0.23348c1.32678,-0.00178 2.59762,0.15271 3.81893,0.44545c0.0239,0.00507 0.04778,0.00786 0.07142,0.01368c1.53133,-7.28433 7.99313,-12.69489 15.6775,-12.69489c6.39978,0 12.01433,3.84678 14.54564,9.29786c0.03988,0.08586 0.10724,0.11422 0.17635,0.09523c1.90363,-0.52119 4.18614,-0.82431 6.39065,-0.66223c0.21472,0.01569 0.29731,-0.10484 0.2282,-0.30011" fill="#006EFF" id="svg_10"/>
    <text fill="#000000" stroke="null" stroke-width="0" stroke-opacity="null" fill-opacity="null" x="3899.197869" y="3504.014869" id="svg_9" font-size="32" font-family="Helvetica, Arial, sans-serif" text-anchor="start" xml:space="preserve">大一统</text>
   </g>
  </g>
 </g>
</svg>