<?xml version="1.0" standalone="no"?><!DOCTYPE svg PUBLIC "-//W3C//DTD SVG 1.1//EN" "http://www.w3.org/Graphics/SVG/1.1/DTD/svg11.dtd"><svg t="1535701291620" class="icon" style="" viewBox="0 0 2426 1024" version="1.1" xmlns="http://www.w3.org/2000/svg" p-id="5355" xmlns:xlink="http://www.w3.org/1999/xlink" width="473.828125" height="200"><defs><style type="text/css"></style></defs><path d="M2103.932773 725.405042v103.260504c0 53.351261-36.141176 98.097479-86.05042 110.144538 250.406723 7.744538 408.739496 18.931092 408.739496 30.978151 0 22.373109-542.978151 41.304202-1213.310925 41.304202s-1213.310924-18.070588-1213.310924-41.304202c0-14.628571 232.336134-27.536134 580.840336-35.280672-42.164706-16.34958-72.282353-57.653782-72.282353-105.842017v-103.260504h-196.194958c-9.465546 0-18.931092-1.721008-27.536134-4.302521-55.932773-6.884034-99.818487-54.211765-99.818488-112.72605v-336.457143c0-62.816807 50.769748-113.586555 113.586555-113.586555 62.816807 0 113.586555 50.769748 113.586555 113.586555v274.50084h96.37647v-130.796639c0-62.816807 50.769748-113.586555 113.586555-113.586554 62.816807 0 113.586555 50.769748 113.586554 113.586554v130.796639h37.862185c49.048739 0 89.492437 39.583193 89.492437 89.492437s-39.583193 89.492437-89.492437 89.492437h-37.862185v103.260504c0 46.467227-28.396639 86.910924-67.979831 104.121009 164.356303-2.581513 349.364706-4.302521 546.420168-4.302521 279.663866 0 537.815126 3.442017 742.615126 8.605042-46.467227-14.628571-80.026891-57.653782-80.026891-108.42353v-103.260504H1680.564706c-9.465546 0-18.931092-1.721008-27.536135-4.302521-55.932773-6.884034-99.818487-54.211765-99.818487-112.72605v-336.457143c0-62.816807 50.769748-113.586555 113.586555-113.586555 62.816807 0 113.586555 50.769748 113.586554 113.586555v274.50084h96.376471v-130.796639c0-62.816807 50.769748-113.586555 113.586554-113.586554s113.586555 50.769748 113.586555 113.586554v130.796639h37.862185c49.048739 0 89.492437 39.583193 89.492437 89.492437s-39.583193 89.492437-89.492437 89.492437h-37.862185z m-887.179832 98.957983c-132.517647 0-240.941176-107.563025-240.941176-240.941176s107.563025-240.941176 240.941176-240.941177 240.941176 107.563025 240.941177 240.941177-108.423529 240.941176-240.941177 240.941176z m0-116.168067c67.979832 0 123.912605-55.072269 123.912605-123.912605s-55.072269-123.912605-123.912605-123.912605-123.912605 55.072269-123.912605 123.912605 55.932773 123.912605 123.912605 123.912605z" fill="#D7E7FC" p-id="5356"></path><path d="M986.137815 653.122689h-28.396639c-7.744538-29.257143-10.32605-60.235294-7.744537-92.07395 12.907563-147.146218 142.843697-256.430252 290.85042-243.522689 7.744538 0.860504 12.907563 7.744538 12.907563 14.628572s-7.744538 12.907563-14.628572 12.907563c-132.517647-11.186555-248.685714 86.05042-260.732773 218.568067-4.302521 30.978151-0.860504 61.095798 7.744538 89.492437z m461.230252 0c4.302521-15.489076 7.744538-30.978151 9.465546-48.188235 7.744538-86.910924-32.69916-170.379832-103.260504-218.568067-6.023529-4.302521-7.744538-12.907563-3.442017-18.931093 4.302521-6.023529 12.907563-7.744538 18.931093-3.442017 78.305882 54.211765 123.052101 147.146218 114.447059 244.383194-1.721008 15.489076-4.302521 30.978151-7.744538 45.606722h-28.396639zM1325.176471 339.038655c6.884034 3.442017 10.32605 11.186555 6.884033 18.070589-3.442017 6.884034-11.186555 10.32605-18.070588 6.884033-10.32605-4.302521-20.652101-8.605042-31.838655-11.186554-6.884034-1.721008-11.186555-9.465546-9.465547-17.210084 1.721008-6.884034 9.465546-11.186555 17.210084-9.465547 12.047059 3.442017 23.233613 7.744538 35.280673 12.907563z m117.889075 162.635295H1471.462185c8.605042 25.815126 12.907563 54.211765 12.907563 82.608403 0 148.006723-119.610084 267.616807-268.477311 267.616807-7.744538 0-13.768067-6.023529-13.768067-13.768068s6.023529-13.768067 13.768067-13.768067c132.517647 0 240.941176-107.563025 240.941176-240.941176 0.860504-28.396639-4.302521-55.932773-13.768067-81.747899zM1024 439.717647c-30.117647 40.443697-48.188235 90.352941-48.188235 144.564706 0 55.932773 18.931092 108.423529 53.35126 151.448739 20.652101 24.954622 45.606723 45.606723 74.003362 61.095799 7.744538 4.302521 15.489076 7.744538 23.233613 11.186554 6.884034 2.581513 10.32605 11.186555 7.744538 18.070589-2.581513 6.884034-11.186555 10.32605-18.070588 7.744537-8.605042-3.442017-18.070588-7.744538-25.815126-12.047058-31.838655-17.210084-59.37479-40.443697-82.608404-67.979832-37.862185-47.327731-59.37479-105.842017-59.37479-168.658824 0-72.282353 28.396639-138.541176 75.72437-186.729412v41.304202z m192.752941 281.384874c-75.72437 0-137.680672-61.956303-137.680672-137.680672s61.956303-137.680672 137.680672-137.680673 137.680672 61.956303 137.680672 137.680673c0 76.584874-61.956303 137.680672-137.680672 137.680672z m0-26.67563c61.095798 0 110.144538-49.048739 110.144538-110.144538S1277.848739 474.137815 1216.752941 474.137815s-110.144538 49.048739-110.144538 110.144538 49.048739 110.144538 110.144538 110.144538z m5.163025-173.821849l58.514286 58.514286c2.581513 2.581513 2.581513 6.884034 0 9.465546l-58.514286 58.514286c-2.581513 2.581513-6.884034 2.581513-9.465546 0l-58.514286-58.514286c-2.581513-2.581513-2.581513-6.884034 0-9.465546l58.514286-58.514286c1.721008-2.581513 6.884034-2.581513 9.465546 0z m-5.163025 34.420168l-29.257143 29.257143 29.257143 29.257143 29.257143-29.257143-29.257143-29.257143z m-1003.347899-101.539496v-34.420168c0-7.744538 6.023529-13.768067 13.768067-13.768067 7.744538 0 13.768067 6.023529 13.768067 13.768067v34.420168c0 7.744538-6.023529 13.768067-13.768067 13.768068-7.744538 0-13.768067-6.023529-13.768067-13.768068z m226.312605 240.941177h96.376471c15.489076 0 27.536134 12.047059 27.536134 27.536134v106.702521c0 47.327731 38.722689 86.05042 86.05042 86.05042s86.05042-38.722689 86.05042-86.05042v-106.702521c0-15.489076 12.047059-27.536134 27.536135-27.536134h34.420168c34.420168 0 61.956303-27.536134 61.956302-61.956303s-27.536134-61.956303-61.956302-61.956302h-34.420168c-15.489076 0-27.536134-12.047059-27.536135-27.536135v-68.840336c0-7.744538 6.023529-13.768067 13.768068-13.768067 7.744538 0 13.768067 6.023529 13.768067 13.768067v61.956303c0 3.442017 3.442017 6.884034 6.884034 6.884033h27.536134c49.048739 0 89.492437 39.583193 89.492437 89.492437s-39.583193 89.492437-89.492437 89.492437h-27.536134c-3.442017 0-6.884034 3.442017-6.884034 6.884034v99.818487c0 62.816807-50.769748 113.586555-113.586555 113.586555s-113.586555-50.769748-113.586554-113.586555v-99.818487c0-3.442017-3.442017-6.884034-6.884034-6.884034h-89.492437c-7.744538 0-13.768067-6.023529-13.768067-13.768067 0-7.744538 6.023529-13.768067 13.768067-13.768067z m-55.072269 26.67563h-61.956302c-61.095798-1.721008-110.144538-51.630252-110.144538-113.586555v-113.586554c0-7.744538 6.023529-13.768067 13.768067-13.768067 7.744538 0 13.768067 6.023529 13.768067 13.768067v113.586554c0 46.467227 37.001681 84.329412 82.608404 86.050421h61.956302c7.744538 0 13.768067 6.023529 13.768067 13.768067 0 7.744538-6.023529 13.768067-13.768067 13.768067z m378.621849-302.036975c0 7.744538-6.023529 13.768067-13.768067 13.768067-7.744538 0-13.768067-6.023529-13.768068-13.768067v-3.442017c0-47.327731-38.722689-86.05042-86.05042-86.05042s-86.05042 38.722689-86.05042 86.05042V542.978151c0 15.489076-12.047059 27.536134-27.536134 27.536135h-96.376471c-15.489076 0-27.536134-12.047059-27.536134-27.536135v-271.058823c0-47.327731-38.722689-86.05042-86.050421-86.05042s-86.05042 38.722689-86.05042 86.05042v106.702521c0 7.744538-6.023529 13.768067-13.768067 13.768067-7.744538 0-13.768067-6.023529-13.768067-13.768067v-106.702521c0-62.816807 50.769748-113.586555 113.586554-113.586555 62.816807 0 113.586555 50.769748 113.586555 113.586555v264.17479c0 3.442017 3.442017 6.884034 6.884034 6.884033h82.608403c3.442017 0 6.884034-3.442017 6.884034-6.884033v-120.470589c0-62.816807 50.769748-113.586555 113.586554-113.586554s113.586555 50.769748 113.586555 113.586554v3.442017z m817.478991 34.420168v-34.420168c0-7.744538 6.023529-13.768067 13.768068-13.768067s13.768067 6.023529 13.768067 13.768067v34.420168c0 7.744538-6.023529 13.768067-13.768067 13.768068s-13.768067-6.023529-13.768068-13.768068z m227.17311 240.941177h96.37647c15.489076 0 27.536134 12.047059 27.536135 27.536134v106.702521c0 47.327731 38.722689 86.05042 86.05042 86.05042s86.05042-38.722689 86.05042-86.05042v-106.702521c0-15.489076 12.047059-27.536134 27.536135-27.536134h34.420168c34.420168 0 61.956303-27.536134 61.956302-61.956303s-27.536134-61.956303-61.956302-61.956302h-34.420168c-15.489076 0-27.536134-12.047059-27.536135-27.536135v-68.840336c0-7.744538 6.023529-13.768067 13.768067-13.768067s13.768067 6.023529 13.768068 13.768067v61.956303c0 3.442017 3.442017 6.884034 6.884033 6.884033h27.536135c49.048739 0 89.492437 39.583193 89.492437 89.492437s-39.583193 89.492437-89.492437 89.492437h-27.536135c-3.442017 0-6.884034 3.442017-6.884033 6.884034v99.818487c0 62.816807-50.769748 113.586555-113.586555 113.586555s-113.586555-50.769748-113.586555-113.586555v-99.818487c0-3.442017-3.442017-6.884034-6.884033-6.884034H1807.919328c-7.744538 0-13.768067-6.023529-13.768067-13.768067 0-7.744538 6.023529-13.768067 13.768067-13.768067z m-55.072269 26.67563h-61.956303c-61.095798-1.721008-110.144538-51.630252-110.144538-113.586555v-113.586554c0-7.744538 6.023529-13.768067 13.768068-13.768067s13.768067 6.023529 13.768067 13.768067v113.586554c0 46.467227 37.001681 84.329412 82.608403 86.050421h61.956303c7.744538 0 13.768067 6.023529 13.768067 13.768067 0 7.744538-6.023529 13.768067-13.768067 13.768067z m377.761344-302.036975c0 7.744538-6.023529 13.768067-13.768067 13.768067s-13.768067-6.023529-13.768067-13.768067v-3.442017c0-47.327731-38.722689-86.05042-86.05042-86.05042s-86.05042 38.722689-86.05042 86.05042V542.978151c0 15.489076-12.047059 27.536134-27.536135 27.536135H1807.919328c-15.489076 0-27.536134-12.047059-27.536135-27.536135v-271.058823c0-47.327731-38.722689-86.05042-86.05042-86.05042s-86.05042 38.722689-86.05042 86.05042v106.702521c0 7.744538-6.023529 13.768067-13.768067 13.768067s-13.768067-6.023529-13.768068-13.768067v-106.702521c0-62.816807 50.769748-113.586555 113.586555-113.586555s113.586555 50.769748 113.586555 113.586555v264.17479c0 3.442017 3.442017 6.884034 6.884033 6.884033h82.608404c3.442017 0 6.884034-3.442017 6.884033-6.884033v-120.470589c0-62.816807 50.769748-113.586555 113.586555-113.586554s113.586555 50.769748 113.586555 113.586554v3.442017z m-1319.152941-377.761344c-11.186555 0-20.652101 9.465546-20.652101 20.652101 0-11.186555-9.465546-20.652101-20.6521-20.652101 11.186555 0 20.652101-9.465546 20.6521-20.652101 0 11.186555 8.605042 20.652101 20.652101 20.652101z m851.89916 893.203361c-11.186555 0-20.652101 9.465546-20.652101 20.652101 0-11.186555-9.465546-20.652101-20.652101-20.652101 11.186555 0 20.652101-9.465546 20.652101-20.652101 0 11.186555 9.465546 20.652101 20.652101 20.652101z m-769.290756-913.855462c-11.186555 0-20.652101 9.465546-20.652101 20.652101 0-11.186555-9.465546-20.652101-20.652101-20.652101 11.186555 0 20.652101-9.465546 20.652101-20.652101 0 11.186555 8.605042 20.652101 20.652101 20.652101z m851.899159 893.203361c-11.186555 0-20.652101 9.465546-20.652101 20.652101 0-11.186555-9.465546-20.652101-20.6521-20.652101 11.186555 0 20.652101-9.465546 20.6521-20.652101 0 11.186555 9.465546 20.652101 20.652101 20.652101z m-872.55126-824.363025c-22.373109 0-41.304202 18.070588-41.304202 41.304202 0-22.373109-18.070588-41.304202-41.304202-41.304202 22.373109 0 41.304202-18.070588 41.304202-41.304202 0 22.373109 18.070588 41.304202 41.304202 41.304202z m851.899159 893.203361c-22.373109 0-41.304202 18.070588-41.304201 41.304202 0-22.373109-18.070588-41.304202-41.304202-41.304202 22.373109 0 41.304202-18.070588 41.304202-41.304201 0 23.233613 18.931092 41.304202 41.304201 41.304201z" fill="#3789EE" p-id="5357"></path></svg>